SubjTestsquat
version=1
nRows=39
nColumns=19
inDegrees=no
endheader
time	l_ground_force_vx	l_ground_force_vy	l_ground_force_vz	l_ground_force_px	l_ground_force_py	l_ground_force_pz	ground_force_vx	ground_force_vy	ground_force_vz	ground_force_px	ground_force_py	ground_force_pz	l_ground_torque_x	l_ground_torque_y	l_ground_torque_z	ground_torque_x	ground_torque_y	ground_torque_z	
27.62	2.1225978992651	310.485365500245	10.1657665138582	0.120938002911227	0	-0.128405129694943	13.8384567950512	334.801954884927	-8.25516905330449	0.120794550711232	0	0.137915544947209	0	11.3020663701682	0	0	8.47335798648317	0
27.63	1.71718320102644	311.632274965522	10.6741137729451	0.120691067971127	0	-0.128480447820486	13.3119492626151	334.137829279735	-8.88681440958395	0.120810232601964	0	0.137771560313392	0	10.8155978255497	0	0	8.2943534744255	0
27.64	1.36884928774169	312.44404508952	11.3393922535183	0.12056465674596	0	-0.128528175792578	12.7078334762931	332.911158648812	-9.65007994896272	0.120928944309314	0	0.137525587548244	0	10.4444486435927	0	0	8.12468034790761	0
27.65	1.16704472940804	312.698317523138	12.258798287763	0.12057602545943	0	-0.128436086439803	11.9334989337991	331.266063658649	-10.4201057794245	0.121065968508537	0	0.13722392666007	0	10.2848038552314	0	0	7.81464601019075	0
27.66	1.04833229261898	312.362650646201	13.3703375251997	0.120590078103678	0	-0.128270000773503	11.0574935683514	329.406537508912	-11.0679184440004	0.121049754135483	0	0.136980451643825	0	10.2063434410343	0	0	7.25148875601126	0
27.67	1.07251860928738	311.295045558904	14.4424065907936	0.120345666923118	0	-0.128119918656463	10.3167115269126	327.339504222093	-11.4168737950253	0.120832596455935	0	0.136790926737254	0	10.262657489421	0	0	6.47556548517304	0
27.68	1.53369844036323	309.305325753923	15.2129508480741	0.119750250063635	0	-0.127997764690346	9.99598387585848	325.064195519177	-11.470274474598	0.120215100552064	0	0.136560105691889	0	10.7528620397112	0	0	5.83896107721465	0
27.69	2.47553952300881	306.326183132846	15.5078274316145	0.118621301833978	0	-0.12785444901722	10.1018930026093	322.64266324249	-11.3806083039262	0.119146444732715	0	0.136262687532756	0	11.751122756682	0	0	5.61940127486549	0
27.7	3.61150854275202	302.375548172577	15.3668416714451	0.116949983891566	0	-0.127649547260334	10.3040237010932	320.253856474869	-11.2879273506342	0.117934482661027	0	0.136001319686453	0	12.9850218722396	0	0	5.71225776917521	0
27.71	4.62417664111278	297.65361113845	14.9228300227614	0.11498573412229	0	-0.12739344453967	10.4520782403561	318.173526255319	-11.2523034391101	0.116915115706863	0	0.135917311556832	0	14.0472649775243	0	0	5.90787734782533	0
27.72	5.36582685060576	292.41716741243	14.3614907591672	0.113218355436722	0	-0.127054522343859	10.5935227856123	316.505766014123	-11.4192524995562	0.116270976381884	0	0.135951658904906	0	14.8871632897771	0	0	6.12134951825814	0
27.73	5.84757300768203	287.048276680758	13.9083676864716	0.112163307324944	0	-0.126603831283367	10.7636782763683	315.131661953983	-11.7889331051432	0.116003371205122	0	0.135991037149494	0	15.660786419891	0	0	6.22626407066137	0
27.74	6.10500790607671	282.239143307216	13.5175652431489	0.111781376617663	0	-0.126085841362648	11.0937976480466	313.958333084026	-12.1840521396435	0.1157580309055	0	0.135980637199468	0	16.231851045194	0	0	6.193716542995	0
27.75	6.15988861472004	278.586926401064	13.1670100769198	0.111762051256001	0	-0.125561026648922	11.5068093833802	312.860883668725	-12.5061714180593	0.115302118217381	0	0.1359976635319	0	16.4476402093906	0	0	5.89707001431639	0
27.76	6.17917064225134	276.277172477196	12.7889792420609	0.111656479205139	0	-0.125096360437623	11.9083304103642	311.772029963954	-12.7084665091188	0.114638469762499	0	0.136144460527357	0	16.514585116366	0	0	5.49390994735084	0
27.77	6.32245862403699	274.865675190248	12.3579705498576	0.111109667837876	0	-0.124669295355766	12.3085124847603	310.816564014534	-12.7372093229772	0.113692841338808	0	0.136431940901666	0	16.5671430173843	0	0	5.26111097504395	0
27.78	6.71112028343703	273.754088722456	11.9366375957187	0.110189044548119	0	-0.124270832949737	12.7009840107313	310.114990575347	-12.7254245903909	0.112359077075106	0	0.136719347838722	0	16.7853418345242	0	0	5.40285552481263	0
27.79	7.2641857107098	272.701539046341	11.5929217677148	0.10915708587947	0	-0.124013534017958	13.0915881686391	309.711746269746	-12.9542852616705	0.110902743376262	0	0.136873131715379	0	17.2988408944069	0	0	5.92101095921503	0
27.8	7.70233354285079	271.47511782946	11.4953284764503	0.108468372595733	0	-0.123916347556239	13.4360993625148	309.596073440929	-13.6831233992832	0.109942469164906	0	0.136826126460652	0	17.9573312826742	0	0	6.52862881206411	0
27.81	7.80286589155523	269.895324394438	11.7269904578491	0.108411536303761	0	-0.123872387047261	13.6417741067962	309.707152426887	-14.8066791494357	0.109840514968726	0	0.136659734772945	0	18.4463369985481	0	0	7.00916104849577	0
27.82	7.64870722393431	268.137457937741	12.098066379136	0.108609989816934	0	-0.123846904563909	13.6361605776243	310.004988203261	-15.8833356244929	0.110314989878308	0	0.136596544270063	0	18.6366354314595	0	0	7.24420868752215	0
27.83	7.50335283870413	266.335084674706	12.4534134302864	0.10862424498996	0	-0.1238309615752	13.4439622245093	310.439001528321	-16.761030631029	0.11086910707452	0	0.136674065489415	0	18.6795500207488	0	0	7.32166761256692	0
27.84	7.47326223723681	264.519314825846	12.828539614473	0.108310418229739	0	-0.12380511793358	13.1887426010737	310.990545167751	-17.4702273150113	0.111187742611278	0	0.136893907474791	0	18.6926060124385	0	0	7.31208112012742	0
27.85	7.51312040753514	262.843074272675	13.2804095305534	0.107749427613416	0	-0.123730044233851	12.9249522776862	311.663074244872	-17.9987530553844	0.111215946161542	0	0.137235282654354	0	18.6923374817547	0	0	7.16578681402784	0
27.86	7.53567290472362	261.361722645803	13.7080438909661	0.107223180417954	0	-0.123558785148682	12.6360165505943	312.418635393321	-18.4277895779899	0.11122314202875	0	0.137577919289805	0	18.5857539952032	0	0	6.93348864893383	0
27.87	7.59350659024304	260.075298363847	13.9689888155968	0.106874939154085	0	-0.123427605160252	12.3475556799799	313.216297515705	-18.8308153426651	0.111223243252576	0	0.137877180136845	0	18.4165782038722	0	0	6.69095326881679	0
27.88	7.79188554315981	258.948077526251	13.9662432339365	0.106628188595479	0	-0.123491288547164	12.1832847760638	313.948483047588	-19.247922143185	0.111119515194796	0	0.138021807892932	0	18.4033064586584	0	0	6.61495303599878	0
27.89	8.07957049179604	257.820922678022	13.918118408124	0.106361068077188	0	-0.123738850739338	12.2405763048996	314.473515552001	-19.7032040469139	0.110969990533947	0	0.137920238003832	0	18.5511483922581	0	0	6.80939849275588	0
27.9	8.25611267946503	256.420971811636	14.0280879254431	0.106242969994384	0	-0.123970662876051	12.3739312927864	314.832774630172	-20.1118748467908	0.110943562456909	0	0.137687347261016	0	18.6174525844232	0	0	7.04647650473654	0
27.91	8.23422884783525	254.799109242327	14.3285920096858	0.106491212664445	0	-0.124082119963811	12.4647355398271	315.107368883279	-20.4504961555193	0.111134792293807	0	0.137440084955143	0	18.498376383204	0	0	7.19952058857728	0
27.92	8.04532635638253	253.280580767082	14.72987980688	0.10697007742219	0	-0.124167465169881	12.4885038384973	315.390773620166	-20.7871844152461	0.111552780488838	0	0.137274832337906	0	18.2673242256769	0	0	7.27466033480811	0
27.93	7.6580654585208	251.977735453364	15.1983514727754	0.107560129760675	0	-0.124194996898299	12.197678965719	315.678537949806	-21.0090453818671	0.112259371061546	0	0.137278534255507	0	17.8219163278593	0	0	7.03670472218383	0
27.94	7.15544406871397	250.942038029081	15.711999349052	0.108019859474488	0	-0.124167078270272	11.3907543303652	315.990615750449	-21.0768096567366	0.113022373614816	0	0.137384675358973	0	17.2325536413341	0	0	6.60344853249638	0
27.95	6.78221889427163	250.316386078804	16.2992399087303	0.108083371354257	0	-0.124165094113576	10.2723424117708	316.414617764351	-20.9536384928572	0.113550809409546	0	0.137471454467435	0	16.8022571137197	0	0	6.3054337766229	0
27.96	6.7403717695109	250.192422577924	16.8992592761707	0.107753373390026	0	-0.12424821500122	9.31301884502997	316.978274428975	-20.6720126810762	0.113622682997451	0	0.137500611569359	0	16.6650951401768	0	0	6.21577848413299	0
27.97	7.05764809784367	250.518210764664	17.3464699744804	0.107083145409876	0	-0.12448633352972	8.90595428414159	317.841195538096	-20.4103873829357	0.112991837723335	0	0.137522780945282	0	16.7986884983984	0	0	6.36957146232362	0
27.98	7.59111504774504	251.146650430659	17.6454613707275	0.106435785654519	0	-0.124959987193581	9.16866958714837	319.053323584778	-20.3491771638179	0.111858906051249	0	0.13754700887081	0	17.1207870507345	0	0	6.73070674310986	0
27.99	8.10715241118854	251.848376629693	17.883104561354	0.106091435428488	0	-0.125599712645551	9.91667567684323	320.243077139607	-20.5291577634523	0.110685695062321	0	0.137480084885993	0	17.4849690754848	0	0	7.24840910594017	0
28	8.3352657610807	252.433391382428	18.0943595877669	0.106145259909031	0	-0.126254155751276	10.6694786919343	320.904511962024	-20.9799493928423	0.109970544209679	0	0.13728091638708	0	17.6515301631327	0	0	7.78282761157174	0
